<?xml version="1.0" standalone="no"?>
<!DOCTYPE svg PUBLIC "-//W3C//DTD SVG 20010904//EN"
 "http://www.w3.org/TR/2001/REC-SVG-20010904/DTD/svg10.dtd">
<svg version="1.0" xmlns="http://www.w3.org/2000/svg"
 width="256.000000pt" height="256.000000pt" viewBox="0 0 256.000000 256.000000"
 preserveAspectRatio="xMidYMid meet">
<metadata>
Created by potrace 1.11, written by Peter Selinger 2001-2013
</metadata>
<g transform="translate(0.000000,256.000000) scale(0.100000,-0.100000)"
fill="#000000" stroke="none">
<path d="M201 2528 c-7 -11 -11 -85 -11 -196 0 -168 1 -180 21 -201 16 -17 28
-21 48 -16 52 13 56 24 56 170 l0 135 126 0 125 0 2 -415 1 -415 -100 0 c-92
0 -102 -2 -124 -24 -19 -19 -22 -30 -16 -52 4 -16 17 -34 28 -39 12 -6 123
-10 280 -10 287 1 293 2 293 61 0 52 -27 64 -142 64 l-98 0 0 415 0 415 125 0
c123 0 125 0 126 -22 0 -13 1 -72 1 -132 0 -101 2 -111 24 -133 30 -29 49 -29
79 2 25 24 25 26 25 209 0 183 0 185 -22 192 -13 5 -206 8 -430 9 -376 0 -407
-1 -417 -17z"/>
<path d="M1483 2542 c-13 -2 -30 -13 -38 -25 -37 -54 -2 -97 80 -97 l55 0 0
-415 0 -415 -55 0 c-84 0 -120 -47 -76 -101 l19 -24 428 0 c374 -1 431 1 441
15 9 10 12 64 13 173 0 155 -1 158 -25 182 -29 30 -45 31 -77 5 -24 -18 -25
-25 -26 -112 0 -51 -1 -103 -1 -115 l-1 -23 -255 0 c-197 0 -255 3 -256 13 -1
6 -2 90 -3 184 l-1 173 108 0 107 0 0 -43 c0 -54 22 -87 58 -87 60 0 69 26 66
198 -1 72 -2 138 -3 146 -2 22 -30 46 -55 46 -40 0 -60 -24 -66 -81 l-5 -54
-95 0 c-52 -1 -100 0 -105 2 -7 2 -10 63 -10 166 l1 162 237 3 237 2 1 -27 c0
-16 1 -52 1 -82 0 -57 12 -101 31 -113 22 -14 57 -8 77 12 18 18 20 33 20 169
0 132 -2 150 -17 157 -17 7 -763 13 -810 6z"/>
<path d="M1255 1955 c0 -314 1 -440 2 -282 2 159 2 415 0 570 -1 155 -2 26 -2
-288z"/>
<path d="M443 1283 c130 -2 344 -2 475 0 130 1 23 2 -238 2 -261 0 -368 -1
-237 -2z"/>
<path d="M1608 1283 c138 -2 366 -2 505 0 138 1 25 2 -253 2 -278 0 -391 -1
-252 -2z"/>
<path d="M1255 615 c0 -314 1 -440 2 -282 2 159 2 415 0 570 -1 155 -2 26 -2
-288z"/>
<path d="M535 1126 c-161 -39 -257 -149 -258 -293 0 -104 37 -173 123 -228 48
-30 112 -49 265 -80 143 -29 206 -58 230 -106 51 -98 5 -211 -105 -258 -177
-76 -403 3 -426 148 -12 74 -69 106 -108 62 -15 -16 -18 -40 -18 -138 0 -65 0
-128 1 -141 1 -29 34 -61 58 -57 10 2 23 4 29 4 6 1 16 12 23 24 l13 24 67
-33 c140 -71 336 -63 463 18 97 61 148 147 149 252 2 117 -40 201 -126 251
-62 37 -116 53 -252 75 -104 17 -186 47 -221 81 -58 57 -55 146 7 208 127 127
403 74 426 -83 11 -69 64 -102 106 -65 20 18 22 28 22 147 0 74 -5 137 -11
149 -17 31 -59 35 -90 8 -25 -22 -29 -22 -56 -8 -89 46 -216 62 -311 39z"/>
<path d="M1478 1101 c-25 -8 -28 -28 -28 -207 0 -168 1 -182 20 -202 25 -27
50 -28 81 -3 23 18 24 24 24 155 l0 136 127 0 126 0 0 -415 0 -415 -102 0
c-88 0 -105 -3 -120 -19 -25 -27 -27 -57 -6 -83 18 -22 21 -22 276 -23 296 -2
314 2 314 60 0 53 -26 65 -142 65 l-98 0 0 415 0 415 125 0 125 0 1 -27 c0
-16 1 -73 1 -128 0 -55 5 -108 9 -117 23 -43 88 -46 106 -5 16 35 17 364 1
385 -12 17 -41 18 -420 18 -224 -1 -413 -3 -420 -5z"/>
</g>
</svg>
